<mxfile host="app.diagrams.net" modified="2022-11-20T23:23:09.300Z" agent="5.0 (Macintosh; Intel Mac OS X 10_15_7) AppleWebKit/605.1.15 (KHTML, like Gecko) Version/16.1 Safari/605.1.15" etag="bz8k_zmtUQzr2PZNu9PQ" version="20.5.3" type="github">
  <diagram id="1wPokvKT6IK0ZJLY1oq-" name="Página-1">
    <mxGraphModel dx="1769" dy="715" grid="1" gridSize="10" guides="1" tooltips="1" connect="1" arrows="1" fold="1" page="1" pageScale="1" pageWidth="827" pageHeight="1169" math="0" shadow="0">
      <root>
        <mxCell id="0" />
        <mxCell id="1" parent="0" />
        <mxCell id="gD1wzpOhMoeZEeKWYcdL-1" value="" style="strokeWidth=1;shadow=0;dashed=0;align=center;html=1;shape=mxgraph.mockup.containers.browserWindow;rSize=0;strokeColor=#666666;strokeColor2=#008cff;strokeColor3=#c4c4c4;mainText=,;recursiveResize=0;" vertex="1" parent="1">
          <mxGeometry x="-70" y="180" width="590" height="380" as="geometry" />
        </mxCell>
        <mxCell id="gD1wzpOhMoeZEeKWYcdL-2" value="Page 1" style="strokeWidth=1;shadow=0;dashed=0;align=center;html=1;shape=mxgraph.mockup.containers.anchor;fontSize=17;fontColor=#666666;align=left;" vertex="1" parent="gD1wzpOhMoeZEeKWYcdL-1">
          <mxGeometry x="60" y="12" width="110" height="26" as="geometry" />
        </mxCell>
        <mxCell id="gD1wzpOhMoeZEeKWYcdL-3" value="https://www.draw.io" style="strokeWidth=1;shadow=0;dashed=0;align=center;html=1;shape=mxgraph.mockup.containers.anchor;rSize=0;fontSize=17;fontColor=#666666;align=left;" vertex="1" parent="gD1wzpOhMoeZEeKWYcdL-1">
          <mxGeometry x="130" y="60" width="250" height="26" as="geometry" />
        </mxCell>
        <mxCell id="gD1wzpOhMoeZEeKWYcdL-4" value="&lt;span style=&quot;font-weight: 400; caret-color: rgb(33, 37, 41); color: rgb(33, 37, 41); font-family: system-ui, -apple-system, &amp;quot;Segoe UI&amp;quot;, Roboto, &amp;quot;Helvetica Neue&amp;quot;, &amp;quot;Noto Sans&amp;quot;, &amp;quot;Liberation Sans&amp;quot;, Arial, sans-serif, &amp;quot;Apple Color Emoji&amp;quot;, &amp;quot;Segoe UI Emoji&amp;quot;, &amp;quot;Segoe UI Symbol&amp;quot;, &amp;quot;Noto Color Emoji&amp;quot;; font-size: 15px; background-color: rgb(255, 255, 255);&quot;&gt;Museo Identificador :&lt;/span&gt;" style="rounded=1;whiteSpace=wrap;html=1;arcSize=50;strokeColor=none;strokeWidth=1;fillColor=#F8F9FA;fontColor=#000000;whiteSpace=wrap;align=left;verticalAlign=middle;spacingLeft=0;fontStyle=1;fontSize=14;spacing=10;" vertex="1" parent="gD1wzpOhMoeZEeKWYcdL-1">
          <mxGeometry x="60" y="170" width="190" height="10" as="geometry" />
        </mxCell>
        <mxCell id="gD1wzpOhMoeZEeKWYcdL-5" value="&lt;span style=&quot;font-weight: 400; caret-color: rgb(33, 37, 41); color: rgb(33, 37, 41); font-family: system-ui, -apple-system, &amp;quot;Segoe UI&amp;quot;, Roboto, &amp;quot;Helvetica Neue&amp;quot;, &amp;quot;Noto Sans&amp;quot;, &amp;quot;Liberation Sans&amp;quot;, Arial, sans-serif, &amp;quot;Apple Color Emoji&amp;quot;, &amp;quot;Segoe UI Emoji&amp;quot;, &amp;quot;Segoe UI Symbol&amp;quot;, &amp;quot;Noto Color Emoji&amp;quot;; font-size: 15px; background-color: rgb(255, 255, 255);&quot;&gt;Exhibicion Identificador :&lt;/span&gt;" style="rounded=1;whiteSpace=wrap;html=1;arcSize=50;strokeColor=none;strokeWidth=1;fillColor=#F8F9FA;fontColor=#000000;whiteSpace=wrap;align=left;verticalAlign=middle;spacingLeft=0;fontStyle=1;fontSize=14;spacing=10;" vertex="1" parent="gD1wzpOhMoeZEeKWYcdL-1">
          <mxGeometry x="60" y="200" width="190" height="20" as="geometry" />
        </mxCell>
        <mxCell id="gD1wzpOhMoeZEeKWYcdL-6" value="&lt;span style=&quot;font-weight: 400; caret-color: rgb(33, 37, 41); color: rgb(33, 37, 41); font-family: system-ui, -apple-system, &amp;quot;Segoe UI&amp;quot;, Roboto, &amp;quot;Helvetica Neue&amp;quot;, &amp;quot;Noto Sans&amp;quot;, &amp;quot;Liberation Sans&amp;quot;, Arial, sans-serif, &amp;quot;Apple Color Emoji&amp;quot;, &amp;quot;Segoe UI Emoji&amp;quot;, &amp;quot;Segoe UI Symbol&amp;quot;, &amp;quot;Noto Color Emoji&amp;quot;; font-size: 15px; background-color: rgb(255, 255, 255);&quot;&gt;Obra Identificador :&lt;/span&gt;" style="rounded=1;whiteSpace=wrap;html=1;arcSize=50;strokeColor=none;strokeWidth=1;fillColor=#F8F9FA;fontColor=#000000;whiteSpace=wrap;align=left;verticalAlign=middle;spacingLeft=0;fontStyle=1;fontSize=14;spacing=10;" vertex="1" parent="gD1wzpOhMoeZEeKWYcdL-1">
          <mxGeometry x="60" y="230" width="160" height="20" as="geometry" />
        </mxCell>
        <mxCell id="gD1wzpOhMoeZEeKWYcdL-7" value="Asociar" style="strokeWidth=1;shadow=0;dashed=0;align=center;html=1;shape=mxgraph.mockup.buttons.button;strokeColor=#666666;fontColor=#ffffff;mainText=;buttonStyle=round;fontSize=17;fontStyle=1;fillColor=#008cff;whiteSpace=wrap;" vertex="1" parent="gD1wzpOhMoeZEeKWYcdL-1">
          <mxGeometry x="65" y="280" width="100" height="30" as="geometry" />
        </mxCell>
        <mxCell id="gD1wzpOhMoeZEeKWYcdL-8" value="Cancelar" style="strokeWidth=1;shadow=0;dashed=0;align=center;html=1;shape=mxgraph.mockup.buttons.button;strokeColor=#666666;fontColor=#ffffff;mainText=;buttonStyle=round;fontSize=17;fontStyle=1;fillColor=#FF3333;whiteSpace=wrap;" vertex="1" parent="gD1wzpOhMoeZEeKWYcdL-1">
          <mxGeometry x="170" y="280" width="100" height="30" as="geometry" />
        </mxCell>
        <mxCell id="gD1wzpOhMoeZEeKWYcdL-9" value="&lt;h2 style=&quot;box-sizing: border-box; margin: 0px 0px 0.5rem; padding: 0px; font-size: 2rem; font-family: &amp;quot;Segoe UI&amp;quot;, Arial, sans-serif; font-weight: 500; line-height: 1.2; caret-color: rgb(33, 37, 41); color: rgb(33, 37, 41); text-align: center !important;&quot; class=&quot;text-center&quot;&gt;Asociar obra a exhibición&lt;/h2&gt;" style="html=1;shadow=0;dashed=0;shape=mxgraph.bootstrap.rrect;rSize=5;strokeColor=none;strokeWidth=1;fillColor=#F8F9FA;fontColor=#000000;whiteSpace=wrap;align=left;verticalAlign=middle;spacingLeft=0;fontStyle=1;fontSize=14;spacing=5;" vertex="1" parent="gD1wzpOhMoeZEeKWYcdL-1">
          <mxGeometry x="120" y="110" width="380" height="50" as="geometry" />
        </mxCell>
        <mxCell id="gD1wzpOhMoeZEeKWYcdL-11" value="Escoger Museo" style="html=1;shadow=0;dashed=0;shape=mxgraph.bootstrap.rrect;rSize=5;fillColor=#ffffff;strokeColor=#CED4DA;align=left;spacing=15;fontSize=14;fontColor=#6C767D;" vertex="1" parent="gD1wzpOhMoeZEeKWYcdL-1">
          <mxGeometry x="260" y="165" width="290" height="20" as="geometry" />
        </mxCell>
        <mxCell id="gD1wzpOhMoeZEeKWYcdL-12" value="" style="shape=triangle;direction=south;fillColor=#343A40;strokeColor=none;perimeter=none;" vertex="1" parent="gD1wzpOhMoeZEeKWYcdL-11">
          <mxGeometry x="1" y="0.5" width="7" height="3" relative="1" as="geometry">
            <mxPoint x="-17" y="1" as="offset" />
          </mxGeometry>
        </mxCell>
        <mxCell id="gD1wzpOhMoeZEeKWYcdL-13" value="" style="shape=triangle;direction=north;fillColor=#343A40;strokeColor=none;perimeter=none;" vertex="1" parent="gD1wzpOhMoeZEeKWYcdL-11">
          <mxGeometry x="1" y="0.5" width="7" height="3" relative="1" as="geometry">
            <mxPoint x="-17" y="-4" as="offset" />
          </mxGeometry>
        </mxCell>
        <mxCell id="gD1wzpOhMoeZEeKWYcdL-14" value="Escoger Exhibición" style="html=1;shadow=0;dashed=0;shape=mxgraph.bootstrap.rrect;rSize=5;fillColor=#ffffff;strokeColor=#CED4DA;align=left;spacing=15;fontSize=14;fontColor=#6C767D;" vertex="1" parent="gD1wzpOhMoeZEeKWYcdL-1">
          <mxGeometry x="260" y="200" width="290" height="20" as="geometry" />
        </mxCell>
        <mxCell id="gD1wzpOhMoeZEeKWYcdL-15" value="" style="shape=triangle;direction=south;fillColor=#343A40;strokeColor=none;perimeter=none;" vertex="1" parent="gD1wzpOhMoeZEeKWYcdL-14">
          <mxGeometry x="1" y="0.5" width="7" height="3" relative="1" as="geometry">
            <mxPoint x="-17" y="1" as="offset" />
          </mxGeometry>
        </mxCell>
        <mxCell id="gD1wzpOhMoeZEeKWYcdL-16" value="" style="shape=triangle;direction=north;fillColor=#343A40;strokeColor=none;perimeter=none;" vertex="1" parent="gD1wzpOhMoeZEeKWYcdL-14">
          <mxGeometry x="1" y="0.5" width="7" height="3" relative="1" as="geometry">
            <mxPoint x="-17" y="-4" as="offset" />
          </mxGeometry>
        </mxCell>
        <mxCell id="gD1wzpOhMoeZEeKWYcdL-17" value="Escoger Obra" style="html=1;shadow=0;dashed=0;shape=mxgraph.bootstrap.rrect;rSize=5;fillColor=#ffffff;strokeColor=#CED4DA;align=left;spacing=15;fontSize=14;fontColor=#6C767D;" vertex="1" parent="gD1wzpOhMoeZEeKWYcdL-1">
          <mxGeometry x="260" y="230" width="290" height="20" as="geometry" />
        </mxCell>
        <mxCell id="gD1wzpOhMoeZEeKWYcdL-18" value="" style="shape=triangle;direction=south;fillColor=#343A40;strokeColor=none;perimeter=none;" vertex="1" parent="gD1wzpOhMoeZEeKWYcdL-17">
          <mxGeometry x="1" y="0.5" width="7" height="3" relative="1" as="geometry">
            <mxPoint x="-17" y="1" as="offset" />
          </mxGeometry>
        </mxCell>
        <mxCell id="gD1wzpOhMoeZEeKWYcdL-19" value="" style="shape=triangle;direction=north;fillColor=#343A40;strokeColor=none;perimeter=none;" vertex="1" parent="gD1wzpOhMoeZEeKWYcdL-17">
          <mxGeometry x="1" y="0.5" width="7" height="3" relative="1" as="geometry">
            <mxPoint x="-17" y="-4" as="offset" />
          </mxGeometry>
        </mxCell>
      </root>
    </mxGraphModel>
  </diagram>
</mxfile>
